<?xml version="1.0" standalone="no"?>
<!DOCTYPE svg PUBLIC "-//W3C//DTD SVG 20010904//EN"
 "http://www.w3.org/TR/2001/REC-SVG-20010904/DTD/svg10.dtd">
<svg version="1.0" xmlns="http://www.w3.org/2000/svg"
 width="552.000000pt" height="552.000000pt" viewBox="0 0 552.000000 552.000000"
 preserveAspectRatio="xMidYMid meet">
<metadata>
Created by potrace 1.13, written by Peter Selinger 2001-2015
</metadata>
<g transform="translate(0.000000,552.000000) scale(0.080000,-0.080000)"
fill="#000000" stroke="none">
<path d="M3475 4395 c-5 -2 -210 -6 -455 -9 -245 -3 -497 -10 -560 -15 -63 -6
-168 -15 -233 -21 -131 -11 -271 -34 -344 -55 -26 -7 -82 -23 -123 -34 -41
-12 -95 -28 -120 -35 -25 -8 -99 -26 -165 -41 -255 -56 -371 -125 -472 -282
-32 -50 -38 -67 -41 -128 -5 -85 8 -121 67 -187 49 -55 72 -67 201 -103 97
-27 150 -45 150 -51 0 -2 -11 -20 -25 -40 -14 -20 -25 -48 -25 -62 0 -33 36
-89 61 -97 14 -5 19 -13 15 -23 -3 -10 -21 -62 -41 -117 -20 -55 -49 -156 -65
-223 -23 -102 -33 -129 -58 -155 -62 -66 -117 -189 -132 -295 -6 -41 -15 -69
-25 -74 -26 -15 -65 -61 -87 -103 -23 -45 -35 -157 -20 -194 7 -21 4 -29 -20
-49 -54 -46 -81 -116 -86 -222 -4 -85 -1 -101 21 -151 29 -65 69 -109 126
-139 137 -69 429 -142 781 -194 255 -38 381 -46 700 -45 238 1 315 -2 400 -16
113 -19 347 -17 520 4 47 6 245 18 440 26 195 8 362 17 370 20 12 3 248 25
440 40 47 3 267 31 595 76 44 6 112 19 150 31 236 67 398 122 425 144 8 6 25
15 37 18 54 17 160 117 192 182 20 40 24 63 25 153 1 93 -2 112 -22 151 -29
54 -85 115 -122 130 -25 10 -28 17 -33 78 -9 108 -49 190 -93 192 -6 0 -23 13
-37 29 -23 26 -42 35 -123 56 -5 2 -16 41 -23 86 -40 263 -236 647 -378 740
l-27 18 25 5 c13 3 58 10 99 15 106 14 262 48 355 79 73 23 130 53 194 99 34
25 61 89 61 145 0 46 -32 160 -53 186 -15 19 -86 65 -147 94 -98 48 -451 157
-586 182 -44 8 -144 26 -223 40 -79 15 -146 28 -150 30 -3 2 -51 11 -106 20
-55 9 -125 20 -155 26 -105 17 -207 25 -455 35 -77 4 -174 10 -215 16 -77 9
-387 20 -405 14z m1705 -1036 c14 -10 34 -23 46 -28 47 -20 154 -167 219 -300
88 -180 133 -332 150 -515 3 -32 8 -63 11 -67 10 -17 35 -8 46 17 10 22 17 25
42 20 39 -8 65 -32 87 -81 22 -48 24 -96 5 -157 -33 -110 -121 -159 -456 -258
-194 -57 -518 -130 -580 -130 -39 0 -90 -11 -300 -65 -344 -88 -564 -92 -623
-13 -44 59 -17 175 59 253 48 50 83 73 204 131 130 62 124 60 220 89 107 33
109 34 131 75 42 80 54 148 54 315 0 88 -3 178 -7 200 -23 127 -33 170 -64
260 -19 55 -43 119 -54 142 -11 24 -20 47 -20 52 0 5 57 12 128 15 164 9 441
34 454 42 16 10 172 32 198 27 14 -2 36 -13 50 -24z m-3526 -15 c70 -20 255
-44 334 -44 37 0 96 5 132 11 110 18 303 13 410 -10 188 -41 320 -47 627 -28
153 10 285 17 293 17 10 0 20 -16 28 -42 33 -117 170 -171 346 -134 116 24
222 91 241 154 6 20 13 22 69 22 35 0 78 3 95 6 31 6 31 6 72 -80 99 -212 144
-459 120 -669 -6 -53 -19 -121 -29 -150 -17 -49 -21 -53 -63 -63 -114 -29
-343 -130 -421 -187 -103 -74 -159 -155 -174 -249 -7 -44 7 -38 -179 -68 -181
-28 -355 -40 -584 -40 -186 0 -532 19 -706 39 -44 6 -127 13 -185 16 -388 23
-661 105 -795 239 -54 52 -66 72 -84 130 -48 155 -4 350 104 460 35 36 42 51
52 113 20 116 87 327 133 423 12 25 34 71 48 103 23 48 30 56 47 51 11 -3 42
-12 69 -20z m-508 -1199 c37 -78 108 -149 199 -198 l30 -16 -66 -1 c-113 0
-210 44 -245 113 -29 55 -16 166 24 210 16 18 17 17 28 -25 6 -24 20 -61 30
-83z"/>
<path d="M2139 3061 c-54 -33 -61 -43 -53 -65 9 -25 42 -19 90 16 32 23 44 38
42 52 -4 31 -28 30 -79 -3z"/>
<path d="M2635 3051 c-8 -27 2 -45 47 -81 31 -25 45 -31 56 -23 28 17 24 31
-22 77 -48 49 -71 57 -81 27z"/>
<path d="M1839 2870 c-82 -16 -124 -114 -79 -187 23 -39 49 -54 98 -56 89 -3
149 57 139 140 -8 74 -78 119 -158 103z"/>
<path d="M2880 2792 c-40 -20 -73 -72 -72 -112 2 -72 56 -120 135 -120 35 0
51 6 81 33 119 104 -1 271 -144 199z"/>
<path d="M2242 2678 c-17 -17 -15 -74 4 -92 23 -23 63 -31 97 -18 24 9 34 8
51 -3 12 -9 43 -15 76 -15 46 0 60 4 77 23 28 31 34 53 23 83 -15 37 -44 28
-50 -16 -5 -33 -7 -35 -47 -38 -32 -2 -47 2 -62 17 -25 25 -44 26 -76 5 -35
-23 -56 -12 -53 28 3 35 -17 49 -40 26z"/>
</g>
</svg>
